<svg width="16" height="16" viewBox="0 0 16 16" fill="none" xmlns="http://www.w3.org/2000/svg">
<path fill-rule="evenodd" clip-rule="evenodd" d="M8.0001 14.3996C9.69748 14.3996 11.3253 13.7253 12.5256 12.5251C13.7258 11.3249 14.4001 9.69699 14.4001 7.99961C14.4001 6.30222 13.7258 4.67436 12.5256 3.47413C11.3253 2.27389 9.69748 1.59961 8.0001 1.59961C6.30271 1.59961 4.67485 2.27389 3.47461 3.47413C2.27438 4.67436 1.6001 6.30222 1.6001 7.99961C1.6001 9.69699 2.27438 11.3249 3.47461 12.5251C4.67485 13.7253 6.30271 14.3996 8.0001 14.3996ZM11.0857 6.55241C11.132 6.48864 11.1653 6.41637 11.1837 6.33972C11.2021 6.26308 11.2053 6.18356 11.1929 6.10571C11.1806 6.02785 11.1531 5.95319 11.1119 5.88598C11.0707 5.81878 11.0167 5.76034 10.9529 5.71401C10.8891 5.66768 10.8169 5.63436 10.7402 5.61596C10.6636 5.59756 10.584 5.59444 10.5062 5.60677C10.4283 5.6191 10.3537 5.64665 10.2865 5.68783C10.2193 5.72902 10.1608 5.78304 10.1145 5.84681L7.3281 9.67881L5.8241 8.17481C5.76872 8.11753 5.70249 8.07185 5.62928 8.04044C5.55606 8.00903 5.47732 7.99252 5.39765 7.99186C5.31799 7.99121 5.23898 8.00643 5.16526 8.03663C5.09154 8.06683 5.02457 8.11142 4.96826 8.16778C4.91195 8.22414 4.86743 8.29115 4.8373 8.3649C4.80716 8.43866 4.79202 8.51767 4.79275 8.59734C4.79348 8.677 4.81007 8.75573 4.84155 8.82892C4.87303 8.9021 4.91877 8.96829 4.9761 9.02361L6.9761 11.0236C7.0374 11.0849 7.11127 11.1323 7.19261 11.1623C7.27396 11.1924 7.36085 11.2044 7.44731 11.1976C7.53376 11.1909 7.61772 11.1654 7.6934 11.1231C7.76908 11.0808 7.83469 11.0225 7.8857 10.9524L11.0857 6.55241Z" fill="#D4D4D8"/>
</svg>
