<svg width="16" height="16" viewBox="0 0 16 16" fill="none" xmlns="http://www.w3.org/2000/svg">
<path fill-rule="evenodd" clip-rule="evenodd" d="M7.99961 14.3996C9.69699 14.3996 11.3249 13.7253 12.5251 12.5251C13.7253 11.3249 14.3996 9.69699 14.3996 7.99961C14.3996 6.30222 13.7253 4.67436 12.5251 3.47413C11.3249 2.27389 9.69699 1.59961 7.99961 1.59961C6.30222 1.59961 4.67436 2.27389 3.47413 3.47413C2.27389 4.67436 1.59961 6.30222 1.59961 7.99961C1.59961 9.69699 2.27389 11.3249 3.47413 12.5251C4.67436 13.7253 6.30222 14.3996 7.99961 14.3996ZM11.0852 6.55241C11.1315 6.48864 11.1649 6.41637 11.1833 6.33972C11.2017 6.26308 11.2048 6.18356 11.1924 6.10571C11.1801 6.02785 11.1526 5.95319 11.1114 5.88598C11.0702 5.81878 11.0162 5.76034 10.9524 5.71401C10.8886 5.66768 10.8164 5.63436 10.7397 5.61596C10.6631 5.59756 10.5836 5.59444 10.5057 5.60677C10.4279 5.6191 10.3532 5.64665 10.286 5.68783C10.2188 5.72902 10.1603 5.78304 10.114 5.84681L7.32761 9.67881L5.82361 8.17481C5.76823 8.11753 5.70201 8.07185 5.62879 8.04044C5.55557 8.00903 5.47683 7.99252 5.39716 7.99186C5.3175 7.99121 5.2385 8.00643 5.16477 8.03663C5.09105 8.06683 5.02408 8.11142 4.96777 8.16778C4.91146 8.22414 4.86694 8.29115 4.83681 8.3649C4.80667 8.43866 4.79153 8.51767 4.79226 8.59734C4.79299 8.677 4.80958 8.75573 4.84106 8.82891C4.87254 8.9021 4.91828 8.96829 4.97561 9.02361L6.97561 11.0236C7.03691 11.0849 7.11078 11.1323 7.19213 11.1623C7.27347 11.1924 7.36037 11.2044 7.44682 11.1976C7.53327 11.1909 7.61723 11.1654 7.69291 11.1231C7.76859 11.0808 7.8342 11.0225 7.88521 10.9524L11.0852 6.55241Z" fill="#10B981"/>
</svg>
