<svg width="16" height="16" viewBox="0 0 16 16" fill="none" xmlns="http://www.w3.org/2000/svg">
<g clip-path="url(#clip0_5087_11814)">
<path d="M14.6667 0H1.33333C0.596954 0 0 0.596954 0 1.33333V14.6667C0 15.403 0.596954 16 1.33333 16H14.6667C15.403 16 16 15.403 16 14.6667V1.33333C16 0.596954 15.403 0 14.6667 0Z" fill="url(#paint0_linear_5087_11814)"/>
<path fill-rule="evenodd" clip-rule="evenodd" d="M7.9987 1.33203C8.2725 1.33203 8.51843 1.49942 8.6189 1.7541L9.97597 5.19512C10.1135 5.54378 10.1449 5.61057 10.1816 5.66192C10.2242 5.72128 10.2761 5.77324 10.3355 5.81575C10.3868 5.85253 10.4536 5.8839 10.8023 6.0214L14.2433 7.3785C14.498 7.47896 14.6654 7.7249 14.6654 7.9987C14.6654 8.2725 14.498 8.51843 14.2433 8.6189L10.8023 9.97597C10.4536 10.1135 10.3868 10.1449 10.3355 10.1816C10.2761 10.2242 10.2242 10.2761 10.1816 10.3355C10.1449 10.3868 10.1135 10.4536 9.97597 10.8023L8.6189 14.2433C8.51843 14.498 8.2725 14.6654 7.9987 14.6654C7.7249 14.6654 7.47896 14.498 7.3785 14.2433L6.0214 10.8023C5.8839 10.4536 5.85253 10.3868 5.81575 10.3355C5.77324 10.2761 5.72128 10.2242 5.66192 10.1816C5.61057 10.1449 5.54378 10.1135 5.19512 9.97597L1.7541 8.6189C1.49942 8.51843 1.33203 8.2725 1.33203 7.9987C1.33203 7.7249 1.49942 7.47896 1.7541 7.3785L5.19512 6.0214C5.54378 5.8839 5.61057 5.85253 5.66192 5.81575C5.72128 5.77324 5.77324 5.72128 5.81575 5.66192C5.85253 5.61057 5.8839 5.54378 6.0214 5.19512L7.3785 1.7541C7.47896 1.49942 7.7249 1.33203 7.9987 1.33203ZM7.9987 3.81577L7.26176 5.68431C7.25456 5.70252 7.2475 5.72058 7.24043 5.73849C7.13657 6.00266 7.04496 6.23552 6.89976 6.43827C6.77223 6.61633 6.61633 6.77223 6.43827 6.89976C6.23553 7.04496 6.00267 7.13657 5.7385 7.24043C5.72058 7.2475 5.70252 7.25456 5.68431 7.26176L3.81577 7.9987L5.68431 8.73563C5.70252 8.74283 5.72058 8.7499 5.7385 8.75696C6.00266 8.86083 6.23553 8.95243 6.43827 9.09763C6.61633 9.22516 6.77223 9.3811 6.89976 9.5591C7.04496 9.7619 7.13657 9.99476 7.24043 10.2589C7.2475 10.2768 7.25456 10.2949 7.26176 10.3131L7.9987 12.1816L8.73563 10.3131C8.74283 10.2949 8.7499 10.2768 8.75696 10.2589C8.86083 9.9947 8.95243 9.7619 9.09763 9.5591C9.22516 9.3811 9.3811 9.22516 9.5591 9.09763C9.7619 8.95243 9.9947 8.86083 10.2589 8.75696C10.2768 8.7499 10.2949 8.74283 10.3131 8.73563L12.1816 7.9987L10.3131 7.26176C10.2949 7.25456 10.2768 7.2475 10.2589 7.24043C9.99476 7.13657 9.7619 7.04496 9.5591 6.89976C9.3811 6.77223 9.22516 6.61633 9.09763 6.43827C8.95243 6.23553 8.86083 6.00266 8.75696 5.7385C8.7499 5.72058 8.74283 5.70252 8.73563 5.68431L7.9987 3.81577Z" fill="white"/>
</g>
<defs>
<linearGradient id="paint0_linear_5087_11814" x1="8" y1="0" x2="8" y2="16" gradientUnits="userSpaceOnUse">
<stop stop-color="#CB00C7"/>
<stop offset="0.5" stop-color="#7137D7"/>
<stop offset="1" stop-color="#0988F9"/>
</linearGradient>
<clipPath id="clip0_5087_11814">
<rect width="16" height="16" fill="white"/>
</clipPath>
</defs>
</svg>
